Coordinates
version=1
nRows=13
nColumns=40
inDegrees=yes

Units are S.I. units (second, meters, Newtons, ...)
Angles are in degrees.

endheader
time	pelvis_tilt	pelvis_list	pelvis_rotation	pelvis_tx	pelvis_ty	pelvis_tz	hip_flexion_r	hip_adduction_r	hip_rotation_r	knee_angle_r	knee_angle_r_beta	ankle_angle_r	subtalar_angle_r	mtp_angle_r	hip_flexion_l	hip_adduction_l	hip_rotation_l	knee_angle_l	knee_angle_l_beta	ankle_angle_l	subtalar_angle_l	mtp_angle_l	lumbar_extension	lumbar_bending	lumbar_rotation	arm_flex_r	arm_add_r	arm_rot_r	elbow_flex_r	pro_sup_r	wrist_flex_r	wrist_dev_r	arm_flex_l	arm_add_l	arm_rot_l	elbow_flex_l	pro_sup_l	wrist_flex_l	wrist_dev_l
      3.02250000	     -3.30480399	     -4.02179245	      6.99855785	      1.08628292	      0.92636090	      0.44484523	      4.12838615	     -1.96130341	    -15.07270552	     27.80838632	     27.80838632	     15.96313149	     -4.49529734	     -6.62810014	     23.75470500	     -3.79826238	      1.65256317	     24.99936134	     24.99936134	      7.72001307	    -13.35599699	      2.79911917	     -9.15566786	      3.48158443	      3.27105770	     28.96869320	    -13.21897529	      0.62158458	     69.11265732	     45.87680676	      0.00000000	      0.00000000	      0.27787117	    -10.05222423	      0.79975698	     31.96691666	     45.31932143	      0.00000000	      0.00000000
      3.03628571	     -3.33810095	     -3.98467070	      6.63358732	      1.08615090	      0.92672565	      0.44195317	      5.60524182	     -2.67828149	    -14.36393221	     30.86546394	     30.86546394	     13.49703136	     -6.46783842	    -11.82058755	     23.35257496	     -3.67886342	      1.41209921	     25.07332403	     25.07332403	      8.22440944	    -13.52216404	      3.15942099	     -9.01860993	      3.49435548	      2.58974950	     29.15954410	    -12.63769139	      1.85444466	     63.30271130	     45.97495410	      0.00000000	      0.00000000	      0.29382658	    -10.55933971	      1.51357083	     33.94112444	     45.27460357	      0.00000000	      0.00000000
      3.05007143	     -3.26207565	     -3.85699409	      6.22205309	      1.08601700	      0.92711345	      0.43911830	      7.32345427	     -3.58369394	    -13.64619267	     34.70376898	     34.70376898	     12.30439160	     -7.41958357	    -12.82937169	     22.75735386	     -3.51507998	      1.01735398	     25.04009756	     25.04009756	      8.56161189	    -13.61732046	      3.04302250	     -9.15166862	      3.42637986	      2.96358972	     27.64902651	    -13.05980891	      2.09612011	     61.53422616	     46.01197247	      0.00000000	      0.00000000	      1.39319461	    -10.69019391	      1.49629586	     34.79258257	     45.30123198	      0.00000000	      0.00000000
      3.06385714	     -3.15624687	     -3.80651448	      5.84836242	      1.08568180	      0.92742254	      0.43632893	      9.04418874	     -4.28207716	    -12.71683348	     38.26850435	     38.26850435	      9.35346485	     -9.78464125	    -17.33472144	     22.20404070	     -3.40290112	      0.73774041	     25.08714658	     25.08714658	      8.88676341	    -13.83924634	      2.95430647	     -9.22141321	      3.47876865	      2.45872916	     27.72561579	    -12.47614754	      2.79843347	     55.86507550	     46.12896510	      0.00000000	      0.00000000	      1.68573179	    -11.30586744	      2.52471526	     36.77068055	     45.23438481	      0.00000000	      0.00000000
      3.07764286	     -3.04781257	     -3.71380324	      5.45580853	      1.08527283	      0.92757067	      0.43360817	     10.98958002	     -5.06161099	    -11.79585031	     42.22586844	     42.22586844	      6.97870897	    -11.32979720	    -19.31766001	     21.66169782	     -3.26331892	      0.39041619	     25.16518922	     25.16518922	      9.24150036	    -13.96606148	      2.79356661	     -9.36323851	      3.48208190	      2.34895516	     26.95764330	    -12.41045217	      3.31478231	     52.32944239	     46.16970714	      0.00000000	      0.00000000	      2.33654201	    -11.79930920	      3.21140356	     38.60747746	     45.23657463	      0.00000000	      0.00000000
      3.09142857	     -2.90169079	     -3.54154589	      5.07368568	      1.08473364	      0.92762902	      0.43093881	     13.05609527	     -5.93756078	    -10.90929500	     46.39463429	     46.39463429	      4.97628254	    -12.13437857	    -19.49457289	     21.09817688	     -3.04941533	     -0.01778488	     25.26154348	     25.26154348	      9.61563726	    -14.03867530	      2.62448024	     -9.62464610	      3.42179039	      2.45229427	     25.40966047	    -12.64272902	      3.47935248	     50.83620341	     46.20111410	      0.00000000	      0.00000000	      3.51073442	    -12.02838624	      3.17202983	     39.41640188	     45.26686075	      0.00000000	      0.00000000
      3.10521429	     -2.80091750	     -3.52237169	      4.70908959	      1.08410980	      0.92758656	      0.42848442	     15.18742848	     -6.45667182	     -9.83642274	     50.31119453	     50.31119453	      2.58870937	    -13.37988033	    -19.48456561	     20.65321721	     -2.99763465	     -0.34692937	     25.43280003	     25.43280003	     10.02511173	    -14.07870291	      2.47890096	     -9.68745784	      3.51878807	      2.14879740	     25.21140505	    -12.16123931	      3.50300067	     45.38206523	     46.34383129	      0.00000000	      0.00000000	      4.02617111	    -12.79858293	      4.47065991	     41.57638652	     45.20719118	      0.00000000	      0.00000000
      3.11900000	     -2.65330755	     -3.46702516	      4.36122880	      1.08344473	      0.92754748	      0.42609016	     17.26684850	     -6.97733914	     -8.84342008	     54.06415286	     54.06415286	      0.43773064	    -14.07599685	    -18.64219424	     20.17378551	     -2.91098963	     -0.69193366	     25.62604162	     25.62604162	     10.44263166	    -14.12248624	      2.29746478	     -9.90837888	      3.59469275	      2.34623304	     23.64756462	    -12.47541708	      3.53619092	     43.35324299	     46.39115326	      0.00000000	      0.00000000	      5.23725814	    -13.07039520	      4.58495731	     42.79734636	     45.23883085	      0.00000000	      0.00000000
      3.13278571	     -2.48471271	     -3.34964663	      4.04627999	      1.08278705	      0.92755824	      0.42378090	     19.24134188	     -7.51565111	     -7.92400056	     57.47237678	     57.47237678	     -1.64068823	    -14.51748333	    -17.81287015	     19.62967721	     -2.75634117	     -1.05020692	     25.74114060	     25.74114060	     10.86585485	    -14.09222132	      2.10929871	    -10.14398045	      3.59863532	      2.18115418	     22.08821209	    -12.57221020	      3.57961010	     41.86008788	     46.42866306	      0.00000000	      0.00000000	      6.36107473	    -13.44569549	      4.59719028	     43.64406016	     45.26425269	      0.00000000	      0.00000000
      3.14657143	     -2.34009410	     -3.43890650	      3.77555812	      1.08208819	      0.92763012	      0.42175843	     21.25966531	     -7.68145174	     -7.06105922	     60.76017620	     60.76017620	     -1.92623505	    -13.85930786	    -12.23889946	     19.19332035	     -2.88442014	     -1.47925888	     25.95208018	     25.95208018	     11.41023790	    -13.65273437	      1.95644493	    -10.26516443	      3.82454587	      1.80145511	     21.76548124	    -12.03240396	      2.72201479	     36.46324300	     46.62566499	      0.00000000	      0.00000000	      6.92442862	    -14.48792684	      6.34743394	     46.03413696	     45.18939103	      0.00000000	      0.00000000
      3.16035714	     -2.10355016	     -3.39635772	      3.51937184	      1.08144358	      0.92793281	      0.41976220	     22.85794161	     -8.00239271	     -6.38347007	     63.16123091	     63.16123091	     -3.53317522	    -14.15251591	    -11.64870991	     18.57235794	     -2.81090280	     -1.73650233	     26.03092214	     26.03092214	     11.79815294	    -13.65760214	      1.80825277	    -10.57303001	      3.91523284	      1.46908242	     20.04922460	    -12.14055916	      2.71251563	     35.48599019	     46.64763857	      0.00000000	      0.00000000	      8.10372458	    -14.97004610	      6.14847484	     46.68539855	     45.23244715	      0.00000000	      0.00000000
      3.17414286	     -2.00069638	     -3.52227579	      3.20957980	      1.08076332	      0.92821296	      0.41811665	     24.64830026	     -7.99219007	     -5.69494937	     65.43000101	     65.43000101	     -2.95275962	    -13.31899299	     -5.75884958	     18.10919426	     -3.04091978	     -2.35667932	     26.12181355	     26.12181355	     12.35250879	    -12.96117619	      1.64916954	    -10.68204889	      4.17366703	      1.65621617	     18.87062649	    -12.15291965	      1.30646779	     31.98505659	     46.80937730	      0.00000000	      0.00000000	      9.02282082	    -15.54554500	      7.22026766	     48.67636042	     45.25087293	      0.00000000	      0.00000000
      3.18792857	     -1.82650668	     -3.59627689	      3.02403000	      1.08018433	      0.92880743	      0.41642545	     25.89606824	     -8.09882657	     -5.36406558	     66.62976976	     66.62976976	     -3.74555585	    -13.50103303	     -5.45291634	     17.46734309	     -3.07998566	     -2.54904746	     26.00252820	     26.00252820	     12.67021443	    -12.89515441	      1.57099684	    -10.88350801	      4.37670737	      1.17126829	     17.09888922	    -12.26872699	      1.25883296	     31.14381482	     46.82848557	      0.00000000	      0.00000000	     10.09750458	    -16.08489903	      6.96431440	     49.21226196	     45.29516054	      0.00000000	      0.00000000
